<?xml version="1.0" encoding="UTF-8" standalone="no"?>
<!-- Created with Serif DrawPlus 11, 0, 3, 23 (Feb 25, 14:12:55) (http://www.serif.com) -->
<svg version="1.1" xmlns="http://www.w3.org/2000/svg" xmlns:xlink="http://www.w3.org/1999/xlink" width="722.897" height="722.895">
	<g id="selection" transform="matrix(1,0,0,1,-56.9333,-79.4707)">
		<path id="dp_path001" fill="#282c34" fill-rule="evenodd" d="M 418.381,79.4707 C 618.004,79.4707 779.829,241.296 779.829,440.917 C 779.829,640.539 618.004,802.364 418.381,802.364 C 218.759,802.364 56.9333,640.539 56.9333,440.917 C 56.9333,241.296 218.759,79.4707 418.381,79.4707 Z "/>
		<g id="dp_group002">
			<path id="dp_path003" fill="#bc92f8" fill-rule="evenodd" d="M 327.047,318.125 C 306.576,317.761 286.123,317.653 265.649,317.653 C 265.649,392.744 265.649,467.835 265.649,542.925 C 268.201,543.087 270.752,543.247 273.304,543.408 C 295.659,543.408 318.015,543.408 340.369,543.408 C 352.456,542.451 364.476,541.16 376.264,538.212 C 380.68,537.108 385.085,535.965 389.488,534.808 C 392.519,532.84 395.544,530.977 398.933,529.663 C 402.28,528.364 404.757,526.151 407.237,523.669 C 417.132,518.477 424.035,509.616 430.852,501 C 431.2,500.608 431.548,500.216 431.895,499.823 C 431.895,546.467 431.895,593.111 431.895,639.755 C 437.248,639.755 442.6,639.755 447.953,639.755 C 447.953,602.916 447.953,566.077 447.953,529.239 C 493.608,529.239 539.263,529.239 584.917,529.239 C 584.917,566.077 584.917,602.916 584.917,639.755 C 590.584,639.755 596.252,639.755 601.92,639.755 C 601.92,565.763 601.92,491.771 601.92,417.779 C 596.252,417.779 590.584,417.779 584.917,417.779 C 584.917,449.58 584.917,481.38 584.917,513.181 C 539.263,513.181 493.608,513.181 447.953,513.181 C 447.953,487.015 447.953,460.849 447.953,434.683 C 448.941,424.799 447.972,415.265 446.895,405.437 C 445.924,396.564 443.316,388.079 441.292,379.425 C 440.745,377.087 439.469,373.899 438.459,372.341 C 437.375,370.672 436.015,367.953 435.152,365.729 C 433.853,362.383 431.641,359.905 429.16,357.424 L 428.639,356.431 C 424.653,348.839 417.86,342.963 411.065,337.913 C 405.197,333.552 398.895,330.781 392.125,327.945 C 371.732,318.092 349.34,318.523 327.047,318.125 Z M 358.691,335.6 C 353.809,335.081 334.703,334.443 316.233,334.184 L 282.652,333.712 C 282.652,397.943 282.652,462.175 282.652,526.405 L 315.761,526.405 C 333.972,526.405 352.271,525.98 356.427,525.461 C 365.161,524.369 374.577,522.855 382.544,518.967 C 384.696,517.917 387.989,516.589 389.861,516.015 C 393.333,514.951 396.815,513.312 399.405,510.721 C 400.665,509.463 401.075,509.105 403.085,507.513 C 407.288,504.188 410.712,500.249 414.047,496.08 C 416.444,492.971 418.989,489.613 420.088,485.788 C 420.401,484.695 421.283,482.656 422.047,481.257 C 424.075,477.541 425.145,473.292 426.415,469.273 C 429.395,454.217 430.951,438.711 430.951,423.348 C 430.951,406.303 427.597,388.351 420.511,372.813 C 418.939,369.363 416.685,366.675 414.047,364.036 C 413.78,362.489 412.56,361.336 411.587,360.16 C 408.348,356.244 404.725,353.203 400.675,350.192 C 396.323,346.957 391.481,345.079 386.457,343.059 C 377.727,338.317 368.476,336.643 358.691,335.6 Z "/>
			<path id="dp_path004" fill="#bc92f8" fill-rule="evenodd" d="M 449.272,201.471 C 444.856,201.471 440.503,201.295 436.097,200.999 C 432.228,200.739 428.565,200.739 427.96,200.999 C 425.305,202.135 421.789,201.471 418.937,201.471 C 406.803,201.471 394.611,204.204 382.679,206.193 C 376.381,207.768 370.084,209.341 363.788,210.916 C 355.752,213.183 348.063,216.088 340.369,219.319 C 331.825,222.215 323.864,226.627 315.811,230.655 C 309.727,232.817 304.24,236.88 298.709,240.199 C 296.3,241.433 294.501,242.517 292.569,244.449 C 291.385,245.633 290.281,246.728 288.889,247.656 C 287.784,248.393 286.675,248.676 285.387,248.797 L 283.596,250.588 C 280.809,253.376 277.341,255.585 274.249,258.047 C 261.4,268.755 249.348,280.331 238.631,293.193 C 233.303,299.587 228.523,306.312 223.567,312.98 C 222.031,315.047 220.612,317.051 219.46,319.353 C 216.988,324.296 213.957,329.055 210.913,333.663 C 205.912,341.232 202.979,350.067 199.431,358.368 L 197.659,362.092 C 195.053,367.571 192.508,373.52 191.5,379.524 C 191.187,381.396 190.313,384.416 189.561,386.233 C 188.809,388.052 187.131,393.791 185.832,398.985 C 183.159,409.683 182.283,420.611 180.637,431.475 C 179.707,437.619 179.693,443.8 179.693,449.993 C 177.991,470.417 181.191,490.315 184.416,510.445 C 185.989,516.743 187.564,523.04 189.139,529.337 C 191.405,537.372 194.311,545.061 197.541,552.756 C 200.437,561.3 204.849,569.26 208.876,577.315 C 211.04,583.397 215.101,588.885 218.42,594.415 C 219.656,596.824 220.739,598.623 222.671,600.555 C 224.604,602.488 226.389,604.389 227.289,607.007 C 227.939,608.899 229.528,610.403 230.749,611.939 C 231.976,613.48 233.203,615.021 234.429,616.564 C 247.683,633.22 262.997,647.516 279.333,661.076 C 279.759,658.665 279.611,656.985 277.595,655.201 C 275.707,653.532 273.801,651.884 271.888,650.244 C 267.837,646.771 263.867,643.207 259.884,639.656 C 248.155,627.928 237.793,615.208 227.867,601.972 C 225.997,599.592 224.496,597.119 223.144,594.415 C 222.029,592.241 220.867,590.183 219.316,588.275 C 217.959,586.607 217.121,584.983 216.433,582.981 C 212.025,574.165 207.617,565.349 203.209,556.533 C 202.009,554.008 200.811,551.483 199.613,548.959 C 197.88,544.445 196.421,540.085 195.279,535.379 C 194.444,531.948 192.935,527.015 191.923,524.417 C 186.468,510.416 185.508,494.787 183.471,480.023 C 183.471,471.179 183.017,462.404 182.527,453.575 C 182.527,439.581 184.679,425.977 187.151,412.209 C 187.715,407.001 188.329,402.035 189.611,396.949 C 191.968,387.601 195.041,378.704 198.487,369.704 C 202.449,356.323 209.336,344.272 215.587,331.823 C 216.701,329.648 217.864,327.591 219.415,325.683 C 220.847,323.92 221.371,323.084 221.776,321.904 C 223.141,317.937 226.292,314.692 228.86,311.464 C 231.435,308.229 233.888,304.903 236.368,301.596 C 247.136,288.063 258.783,275.891 271.888,264.659 C 278.081,259.351 284.633,254.535 291.153,249.644 C 293.532,247.775 296.005,246.273 298.709,244.921 C 300.884,243.807 302.941,242.644 304.849,241.093 C 306.519,239.736 308.141,238.9 310.143,238.211 C 318.959,233.803 327.775,229.395 336.591,224.987 L 340.38,223.188 C 346.037,220.503 351.66,218.535 357.745,217.056 C 361.176,216.223 366.109,214.712 368.707,213.701 C 382.709,208.247 398.337,207.285 413.101,205.248 C 421.945,205.248 430.72,204.795 439.551,204.304 C 453.544,204.304 467.147,206.456 480.915,208.929 C 486.123,209.492 491.091,210.107 496.176,211.388 C 503.389,213.208 510.431,215.292 517.38,217.952 C 520.496,219.144 523.579,220.311 526.776,221.257 C 538.904,224.849 550.064,231.723 561.303,237.364 C 563.476,238.479 565.535,239.641 567.443,241.192 C 569.204,242.624 570.04,243.148 571.22,243.553 C 574.22,244.585 577.015,246.465 579.249,248.699 C 582.304,251.753 586.179,254.132 589.64,256.728 C 592.873,259.152 596.009,261.697 599.036,264.375 C 601.096,266.196 603.161,267.137 605.796,267.591 C 606.36,267.276 606.924,266.961 607.488,266.647 C 604.964,264.573 602.441,262.499 599.932,260.408 C 592.211,253.972 584.111,247.995 575.849,242.276 C 570.188,239.447 564.744,236.18 559.463,232.691 C 551.893,227.689 543.059,224.756 534.756,221.208 C 530.592,219.227 526.484,217.36 522.157,215.757 C 519.324,214.707 515.475,213.591 513.601,213.277 C 511.728,212.964 508.708,212.091 506.891,211.339 C 505.072,210.588 499.335,208.908 494.139,207.611 C 483.441,204.936 472.513,204.06 461.649,202.415 C 458.219,201.895 452.648,201.471 449.272,201.471 Z "/>
			<path id="dp_path005" fill="#bc92f8" fill-rule="evenodd" d="M 214.941,265.539 C 209.3,259.915 203.948,255.311 203.051,255.311 C 201.513,255.311 201.685,256.283 201.98,257.353 C 209.485,264.817 216.992,272.281 224.499,279.745 L 224.849,277.757 C 225.115,276.26 222.663,273.237 214.941,265.539 Z "/>
			<path id="dp_path006" fill="#bc92f8" fill-rule="evenodd" d="M 206.491,625.524 C 205.783,624.968 205.133,624.641 204.252,624.641 L 194.256,634.905 C 188.759,640.549 184.411,645.717 184.593,646.387 C 184.973,647.781 186.513,647.057 187.412,646.747 C 194.147,639.967 200.88,633.187 207.615,626.407 Z "/>
			<path id="dp_path007" fill="#bc92f8" fill-rule="evenodd" d="M 154.927,443.497 L 143.7,442.337 L 141.388,442.337 C 139.857,442.337 139.143,442.825 139.275,443.78 C 139.431,444.911 142.349,445.551 152.813,446.745 C 165.851,448.235 166.153,448.228 166.153,446.464 C 166.153,444.853 164.945,444.535 154.927,443.497 Z "/>
			<path id="dp_path008" fill="#bc92f8" fill-rule="evenodd" d="M 380.325,179.099 C 379.057,170.699 378.531,169.051 377.019,168.757 C 375.721,168.507 375.22,168.951 375.22,170.348 C 375.22,177.004 375.809,183.847 377.559,190.253 C 378.485,193.647 379.277,194.92 380.343,194.732 C 382.421,194.365 381.832,190.611 381.832,189.092 Z "/>
			<path id="dp_path009" fill="#bc92f8" fill-rule="evenodd" d="M 591.42,204.94 C 590.868,201.817 587.872,204.395 586.855,205.672 C 582.117,211.625 576.447,216.901 571.176,222.384 L 572.46,223.393 C 573.456,224.176 575.76,222.395 582.72,215.461 C 588.175,210.028 591.588,205.9 591.42,204.94 Z "/>
		</g>
	</g>
</svg>